<mxfile host="app.diagrams.net" agent="Mozilla/5.0 (Windows NT 10.0; Win64; x64) AppleWebKit/537.36 (KHTML, like Gecko) Chrome/129.0.0.0 Safari/537.36" version="24.8.2">
  <diagram name="第 1 页" id="21pIOhqoUn6YtNJkunBh">
    <mxGraphModel dx="1372" dy="786" grid="1" gridSize="10" guides="1" tooltips="1" connect="1" arrows="1" fold="1" page="1" pageScale="1" pageWidth="827" pageHeight="1169" math="0" shadow="0">
      <root>
        <mxCell id="0" />
        <mxCell id="1" parent="0" />
        <mxCell id="QpjN1oKr_bKPc7fg7TZF-2" value="" style="edgeStyle=orthogonalEdgeStyle;rounded=0;orthogonalLoop=1;jettySize=auto;html=1;" edge="1" parent="1" source="xiw76HcgIm0DqHhNRd5w-2" target="QpjN1oKr_bKPc7fg7TZF-1">
          <mxGeometry relative="1" as="geometry" />
        </mxCell>
        <mxCell id="xiw76HcgIm0DqHhNRd5w-2" value="开始" style="rounded=0;whiteSpace=wrap;html=1;" parent="1" vertex="1">
          <mxGeometry x="240" y="110" width="120" height="60" as="geometry" />
        </mxCell>
        <mxCell id="QpjN1oKr_bKPc7fg7TZF-1" value="本地加载地图" style="whiteSpace=wrap;html=1;rounded=0;" vertex="1" parent="1">
          <mxGeometry x="240" y="250" width="120" height="60" as="geometry" />
        </mxCell>
      </root>
    </mxGraphModel>
  </diagram>
</mxfile>
